/* XPM */
static char * icc_examin_xpm[] = {
"64 64 610 2",
"  	c None",
". 	c #000000",
"+ 	c #B6B6B6",
"@ 	c #C7C7C7",
"# 	c #C6C6C6",
"$ 	c #C4C4C4",
"% 	c #C3C3C3",
"& 	c #C1C1C1",
"* 	c #BEBEBE",
"= 	c #BDBDBD",
"- 	c #BCBCBC",
"; 	c #BBBBBB",
"> 	c #878787",
", 	c #909090",
"' 	c #B8B8B8",
") 	c #B7B7B7",
"! 	c #B5B5B5",
"~ 	c #B4B4B4",
"{ 	c #B3B3B3",
"] 	c #B2B2B2",
"^ 	c #B1B1B1",
"/ 	c #B0B0B0",
"( 	c #AEAEAE",
"_ 	c #AFAFAF",
": 	c #A6A6A6",
"< 	c #D9D9D9",
"[ 	c #DEDEDE",
"} 	c #DDDDDD",
"| 	c #DADADA",
"1 	c #D6D6D6",
"2 	c #D4D4D4",
"3 	c #D2D2D2",
"4 	c #D0D0D0",
"5 	c #CFCFCF",
"6 	c #CECECE",
"7 	c #A7A7A7",
"8 	c #ACACAC",
"9 	c #CBCBCB",
"0 	c #CACACA",
"a 	c #C9C9C9",
"b 	c #C8C8C8",
"c 	c #C5C5C5",
"d 	c #C2C2C2",
"e 	c #A0A0A0",
"f 	c #D8D8D8",
"g 	c #DFDFDF",
"h 	c #DCDCDC",
"i 	c #A2A2A2",
"j 	c #A9A9A9",
"k 	c #CCCCCC",
"l 	c #B9D6B9",
"m 	c #94ED94",
"n 	c #A5E0A5",
"o 	c #A4DFA4",
"p 	c #C0C0C0",
"q 	c #8C8C8C",
"r 	c #D1D1D1",
"s 	c #CDCDCD",
"t 	c #9C9C9C",
"u 	c #A4A4A4",
"v 	c #B6D5BE",
"w 	c #7DF98D",
"x 	c #7BF87E",
"y 	c #7AF87A",
"z 	c #79F779",
"A 	c #8BE98B",
"B 	c #B0D0B0",
"C 	c #BFBFBF",
"D 	c #707070",
"E 	c #DBDBDB",
"F 	c #D5D5D5",
"G 	c #969696",
"H 	c #9F9F9F",
"I 	c #9EE0B1",
"J 	c #75F995",
"K 	c #73F888",
"L 	c #72F775",
"M 	c #71F671",
"N 	c #70F470",
"O 	c #97D997",
"P 	c #BABABA",
"Q 	c #B9B9B9",
"R 	c #5E5E5E",
"S 	c #999999",
"T 	c #6FFAA2",
"U 	c #6EF99A",
"V 	c #6CF890",
"W 	c #6AF784",
"X 	c #69F671",
"Y 	c #68F568",
"Z 	c #67F467",
"` 	c #67F367",
" .	c #7CE47C",
"..	c #9E9E9E",
"+.	c #636363",
"@.	c #D7D7D7",
"#.	c #8B8B8B",
"$.	c #949494",
"%.	c #67FAA3",
"&.	c #65F99B",
"*.	c #63F894",
"=.	c #62F789",
"-.	c #61F67F",
";.	c #60F569",
">.	c #5FF45F",
",.	c #5EF25E",
"'.	c #5EF15E",
").	c #74E174",
"!.	c #7F7F7F",
"~.	c #696969",
"{.	c #5D5D5D",
"].	c #D3D3D3",
"^.	c #858585",
"/.	c #8F8F8F",
"(.	c #5FF9A5",
"_.	c #5DF99D",
":.	c #5CF896",
"<.	c #5BF78F",
"[.	c #5AF684",
"}.	c #5AF579",
"|.	c #59F465",
"1.	c #58F358",
"2.	c #58F158",
"3.	c #58EF58",
"4.	c #6FDE6F",
"5.	c #A1C09C",
"6.	c #ADADAD",
"7.	c #9D9D9D",
"8.	c #717171",
"9.	c #6D6D6D",
"0.	c #8A8A8A",
"a.	c #59FAA8",
"b.	c #57F9A1",
"c.	c #57F89A",
"d.	c #55F794",
"e.	c #55F68B",
"f.	c #54F582",
"g.	c #54F377",
"h.	c #53F264",
"i.	c #53EF53",
"j.	c #53EC53",
"k.	c #53E953",
"l.	c #7EE553",
"m.	c #A8BC98",
"n.	c #ABABAB",
"o.	c #797979",
"p.	c #767676",
"q.	c #747474",
"r.	c #6E6E6E",
"s.	c #6A6A6A",
"t.	c #7D7D7D",
"u.	c #868686",
"v.	c #53FAAC",
"w.	c #52F9A5",
"x.	c #52F89F",
"y.	c #50F797",
"z.	c #50F692",
"A.	c #4FF489",
"B.	c #4FF380",
"C.	c #4FEF76",
"D.	c #4EEC64",
"E.	c #4EE851",
"F.	c #59E54E",
"G.	c #83E14F",
"H.	c #99DD4D",
"I.	c #A8B591",
"J.	c #989898",
"K.	c #929292",
"L.	c #838383",
"M.	c #808080",
"N.	c #777777",
"O.	c #6B6B6B",
"P.	c #7A7A7A",
"Q.	c #50FAAF",
"R.	c #4EF9AA",
"S.	c #4DF8A3",
"T.	c #4CF79C",
"U.	c #46F593",
"V.	c #3EF187",
"W.	c #37EC7C",
"X.	c #31E86E",
"Y.	c #2CE45E",
"Z.	c #27DF48",
"`.	c #38DA26",
" +	c #6AD41C",
".+	c #80CE16",
"++	c #93C916",
"@+	c #959D73",
"#+	c #8D8D8D",
"$+	c #888888",
"%+	c #818181",
"&+	c #787878",
"*+	c #757575",
"=+	c #6C6C6C",
"-+	c #3CF9AC",
";+	c #30F8A2",
">+	c #24F696",
",+	c #19F38A",
"'+	c #15EE80",
")+	c #16EB7A",
"!+	c #16E571",
"~+	c #17E269",
"{+	c #17DD5E",
"]+	c #17D850",
"^+	c #46D33F",
"/+	c #6FCE23",
"(+	c #86CA16",
"_+	c #98C516",
":+	c #A7C016",
"<+	c #989A72",
"[+	c #8E8E8E",
"}+	c #828282",
"|+	c #7B7B7B",
"1+	c #727272",
"2+	c #6F6F6F",
"3+	c #626262",
"4+	c #5A5A5A",
"5+	c #12F9A2",
"6+	c #13F69C",
"7+	c #14F296",
"8+	c #15EE90",
"9+	c #16EA89",
"0+	c #16E582",
"a+	c #17E17B",
"b+	c #17DD73",
"c+	c #17D76A",
"d+	c #18D360",
"e+	c #56CF53",
"f+	c #77CA43",
"g+	c #8DC529",
"h+	c #9DBF16",
"i+	c #ABBA16",
"j+	c #B6B415",
"k+	c #848484",
"l+	c #737373",
"m+	c #4D4D4D",
"n+	c #12F5A8",
"o+	c #13F1A3",
"p+	c #14ED9D",
"q+	c #15E997",
"r+	c #16E591",
"s+	c #16E18B",
"t+	c #16DC83",
"u+	c #16D77C",
"v+	c #17D374",
"w+	c #28CE6B",
"x+	c #62C961",
"y+	c #7FC455",
"z+	c #92BF46",
"A+	c #A2B92E",
"B+	c #AFB417",
"C+	c #BAAE15",
"D+	c #B7A233",
"E+	c #898989",
"F+	c #7E7E7E",
"G+	c #7C7C7C",
"H+	c #5F5F5F",
"I+	c #A8A8A8",
"J+	c #4E4E4E",
"K+	c #14F0AF",
"L+	c #13EDAA",
"M+	c #14E8A4",
"N+	c #14E49D",
"O+	c #15DF98",
"P+	c #16DB92",
"Q+	c #16D78A",
"R+	c #17D284",
"S+	c #17CD7D",
"T+	c #36C875",
"U+	c #6BC36D",
"V+	c #84BE62",
"W+	c #97B857",
"X+	c #A6B449",
"Y+	c #B3AE34",
"Z+	c #BEA91A",
"`+	c #C7A215",
" @	c #BD9832",
".@	c #505050",
"+@	c #38D8B0",
"@@	c #13E6AF",
"#@	c #14E3AA",
"$@	c #15DEA5",
"%@	c #15D99E",
"&@	c #16D699",
"*@	c #16D192",
"=@	c #16CC8C",
"-@	c #16C784",
";@	c #4CC37F",
">@	c #74BD76",
",@	c #8BB86E",
"'@	c #9DB364",
")@	c #ABAC58",
"!@	c #B7A74B",
"~@	c #C1A13A",
"{@	c #CA9B1C",
"]@	c #D39515",
"^@	c #C58E32",
"/@	c #525252",
"(@	c #5DC3AE",
"_@	c #13E1B5",
":@	c #14DDB0",
"<@	c #15D9AB",
"[@	c #15D5A5",
"}@	c #15CF9F",
"|@	c #16CB99",
"1@	c #16C692",
"2@	c #1CC18C",
"3@	c #5ABC85",
"4@	c #7BB77F",
"5@	c #90B177",
"6@	c #A1AB6F",
"7@	c #AFA666",
"8@	c #BBA05B",
"9@	c #C59B4E",
"0@	c #CE943D",
"a@	c #D68E23",
"b@	c #DA8714",
"c@	c #C38231",
"d@	c #606060",
"e@	c #AAAAAA",
"f@	c #535353",
"g@	c #5EC0B1",
"h@	c #15DBBB",
"i@	c #13D7B5",
"j@	c #14D3B0",
"k@	c #15CFAB",
"l@	c #16CAA6",
"m@	c #16C4A0",
"n@	c #17C09A",
"o@	c #2CBA94",
"p@	c #65B68D",
"q@	c #81B186",
"r@	c #96AB7F",
"s@	c #A6A578",
"t@	c #B49F70",
"u@	c #BE9966",
"v@	c #C9935B",
"w@	c #D08B4F",
"x@	c #D98541",
"y@	c #DA7E27",
"z@	c #D77613",
"A@	c #C17530",
"B@	c #616161",
"C@	c #555555",
"D@	c #A3A3A3",
"E@	c #17D5C0",
"F@	c #13D1BA",
"G@	c #14CCB6",
"H@	c #15C7B1",
"I@	c #16C3AC",
"J@	c #16BEA6",
"K@	c #16B9A0",
"L@	c #3BB39A",
"M@	c #6FAF94",
"N@	c #87A98D",
"O@	c #9AA18A",
"P@	c #A9A18D",
"Q@	c #B59579",
"R@	c #C19070",
"S@	c #CC8967",
"T@	c #D4835D",
"U@	c #DB7C51",
"V@	c #DB7443",
"W@	c #D86C2C",
"X@	c #D66316",
"Y@	c #BF642F",
"Z@	c #575757",
"`@	c #1AD1C6",
" #	c #16CBC1",
".#	c #14C5BB",
"+#	c #14C1B6",
"@#	c #15BCB1",
"##	c #16B7AC",
"$#	c #16B1A6",
"%#	c #51ADA1",
"&#	c #77A79B",
"*#	c #8B9C91",
"=#	c #D2D1D1",
"-#	c #E9E9E9",
";#	c #B8A098",
">#	c #C68778",
",#	c #CF8071",
"'#	c #D77967",
")#	c #DD715D",
"!#	c #DB6852",
"~#	c #D95F45",
"{#	c #D65432",
"]#	c #D34817",
"^#	c #BD4A2E",
"/#	c #585858",
"(#	c #656565",
"_#	c #3DC0C0",
":#	c #17C5C6",
"<#	c #14BFC1",
"[#	c #15BABC",
"}#	c #15B4B7",
"|#	c #16AFB2",
"1#	c #20AAAC",
"2#	c #5FA5A7",
"3#	c #7E9FA1",
"4#	c #909598",
"5#	c #C7C5C5",
"6#	c #E7E7E7",
"7#	c #B59394",
"8#	c #C97D7F",
"9#	c #D27679",
"0#	c #DB6E72",
"a#	c #DE6468",
"b#	c #DB595E",
"c#	c #D94E54",
"d#	c #D73F47",
"e#	c #D42735",
"f#	c #D1141A",
"g#	c #BB2D2D",
"h#	c #666666",
"i#	c #A5A5A5",
"j#	c #61B3B9",
"k#	c #19BECB",
"l#	c #15B8C5",
"m#	c #15B3C1",
"n#	c #15ACBB",
"o#	c #15A7B7",
"p#	c #2EA2B2",
"q#	c #689CAC",
"r#	c #8596A7",
"s#	c #998FA1",
"t#	c #A48697",
"u#	c #AB8291",
"v#	c #C37A8F",
"w#	c #CD7288",
"x#	c #D56980",
"y#	c #DE5F7A",
"z#	c #DF5372",
"A#	c #DD456A",
"B#	c #DA2F5F",
"C#	c #D71855",
"D#	c #D41248",
"E#	c #D11139",
"F#	c #CE101F",
"G#	c #B82B2B",
"H#	c #5B5B5B",
"I#	c #686868",
"J#	c #1BB6D0",
"K#	c #16B0CA",
"L#	c #14AAC5",
"M#	c #15A5C1",
"N#	c #159EBB",
"O#	c #4499B7",
"P#	c #7293B3",
"Q#	c #8B8CAD",
"R#	c #9E84A7",
"S#	c #AD7EA1",
"T#	c #BB769B",
"U#	c #C76D95",
"V#	c #D0638E",
"W#	c #D95887",
"X#	c #E04B80",
"Y#	c #DF387A",
"Z#	c #DD1F72",
"`#	c #DA1469",
" $	c #D71360",
".$	c #D51356",
"+$	c #D2124A",
"@$	c #BC2D4C",
"#$	c #94666B",
"$$	c #5C5C5C",
"%$	c #1DAFD5",
"&$	c #18A8D0",
"*$	c #14A2CB",
"=$	c #159BC6",
"-$	c #1696C2",
";$	c #558EBC",
">$	c #7B88B8",
",$	c #9080B2",
"'$	c #A47AAD",
")$	c #B272A7",
"!$	c #BF68A1",
"~$	c #CA5D9C",
"{$	c #D45195",
"]$	c #DB3F8D",
"^$	c #E12687",
"/$	c #E01681",
"($	c #DD1579",
"_$	c #DB1472",
":$	c #D81369",
"<$	c #C2306B",
"[$	c #986A7A",
"}$	c #646464",
"|$	c #61A4BE",
"1$	c #1CA1D5",
"2$	c #1698CF",
"3$	c #1491CA",
"4$	c #248BC6",
"5$	c #6284C2",
"6$	c #807DBC",
"7$	c #9775B8",
"8$	c #A86CB2",
"9$	c #B761AC",
"0$	c #C355A7",
"a$	c #CD46A1",
"b$	c #D72D9B",
"c$	c #E01995",
"d$	c #E3168E",
"e$	c #E01587",
"f$	c #DE1581",
"g$	c #C7327E",
"h$	c #9D6D84",
"i$	c #83A4B3",
"j$	c #1D98DA",
"k$	c #1890D4",
"l$	c #1586D0",
"m$	c #317FCA",
"n$	c #6C77C6",
"o$	c #876FC1",
"p$	c #9C65BC",
"q$	c #AC59B7",
"r$	c #BA4BB1",
"s$	c #C734AD",
"t$	c #D11CA7",
"u$	c #DA17A2",
"v$	c #E1169A",
"w$	c #E31694",
"x$	c #CD358F",
"y$	c #A2718D",
"z$	c #1F8EDD",
"A$	c #1B84D9",
"B$	c #167CD5",
"C$	c #4971CF",
"D$	c #7568CA",
"E$	c #8E5DC6",
"F$	c #A14EC1",
"G$	c #B13BBB",
"H$	c #BF22B7",
"I$	c #CB17B2",
"J$	c #D517AC",
"K$	c #DE17A6",
"L$	c #D0369E",
"M$	c #A67494",
"N$	c #919191",
"O$	c #6292C2",
"P$	c #1D79DE",
"Q$	c #1A6CD8",
"R$	c #5960D4",
"S$	c #7C53CF",
"T$	c #9442CA",
"U$	c #A526C5",
"V$	c #B517C1",
"W$	c #C317BC",
"X$	c #CD17B7",
"Y$	c #C737AA",
"Z$	c #A7779B",
"`$	c #939393",
" %	c #676767",
".%	c #8499B4",
"+%	c #1E69E2",
"@%	c #2C5BDD",
"#%	c #6447D8",
"$%	c #832ED4",
"%%	c #9918CF",
"&%	c #AC17CB",
"*%	c #BA17C6",
"=%	c #BB38B7",
"-%	c #A679A1",
";%	c #979797",
">%	c #959595",
",%	c #4169D5",
"'%	c #3D3AE1",
")%	c #701DDD",
"!%	c #8A15D8",
"~%	c #A016D4",
"{%	c #AA37C2",
"]%	c #A27AA6",
"^%	c #9A9A9A",
"/%	c #8386B6",
"(%	c #551EE7",
"_%	c #7A19E0",
":%	c #9237CC",
"<%	c #9D7CAC",
"[%	c #9B9B9B",
"}%	c #A1A1A1",
"|%	c #7C5BBF",
"1%	c #8D77A7",
"2%	c #4F4F4F",
"3%	c #3B3B3B",
"4%	c #373737",
"5%	c #333333",
"6%	c #2F2F2F",
"7%	c #2B2B2B",
"8%	c #262626",
"9%	c #222222",
"0%	c #1E1E1E",
"a%	c #191919",
"b%	c #151515",
"c%	c #161616",
"d%	c #171717",
"e%	c #141414",
"f%	c #131313",
"g%	c #121212",
"h%	c #111111",
"i%	c #101010",
"j%	c #0F0F0F",
"k%	c #0E0E0E",
"l%	c #0C0C0C",
"m%	c #0B0B0B",
"n%	c #090909",
"o%	c #070707",
"p%	c #030303",
"q%	c #565656",
"r%	c #4B4B4B",
"s%	c #010101",
"                                                                                                                                ",
"                              . .                                                                                               ",
"                              . .                                                                                               ",
"                            . . .                                                                                               ",
"                            . . . .                                                                                             ",
"                            . . . .                                                                                             ",
"                          . . . . .                                                                                             ",
"                          . . . . . .                                                                                           ",
"                          . . . . . .                                                                                           ",
"                        . . . . . . . .                                                                                         ",
"                        . . . . . . . .                                                                                         ",
"                        . . . . . . . .                                                                                         ",
"                      .       . .                                                                                               ",
"                              . .                                                                                               ",
"                              . .                                                                                               ",
"                              . .                                                                                               ",
"                              . .                                                                                               ",
"                              . .                                                                                               ",
"                              . .                                                                                               ",
"        + @ @ # $ % & * = - ; > , ' ' ' ) + + ! ! ! ~ { { ] ] ^ ^ ^ ^ / ( ( _ ( _ _ _ _ / / / / :                               ",
"        < [ } | < 1 2 3 4 5 6 7 8 9 0 a b @ # c $ $ % d d d & & & & & & & & & & d % $ c c @ b a @ e                             ",
"        f g [ h | f 1 2 3 4 5 i j k l m n o @ @ # # c $ % % % d d & & p & & & & & d % % $ # # a @ q                             ",
"        2 } h | f 1 2 r 5 s k t u v w x y z A B d d & p p C * * * * = = = = = * * * C p & d d $ d D                             ",
"        3 E | f F 2 r 5 s 0 a G H I J K L M M N O * * = - - ; P P P P P P Q Q P P P ; - = * C p t R                             ",
"        4 < < 1 2 3 5 s 9 b # , S T U V W X Y Z `  .P Q Q ' ) ) ) + + + + + + ) ) ' ' Q Q P - ..+.R                             ",
"        5 f @.F 3 5 s 9 a # $ #.$.%.&.*.=.-.;.>.,.'.).+ ! ~ ~ { { ] ] ] { ] { { { ~ ~ + + 8 !.~.{.R                             ",
"        s 1 F ].4 6 9 a # $ & ^./.(._.:.<.[.}.|.1.2.3.4.5.^ ^ ^ _ / _ _ ( _ _ / / / 6.7.#.8.9.~.{.R                             ",
"        9 F 2 r 5 k 0 b $ d C !.0.a.b.c.d.e.f.g.h.i.j.k.l.m._ ( 6.8 8 n.n.n.: H $.^.o.p.q.8.r.s.{.R                             ",
"        0 2 ].4 6 9 b c % p = t.u.v.w.x.y.z.A.B.C.D.E.F.G.H.I.: i 7.J.K.q u.L.M.!.t.o.N.q.8.r.O.{.R                             ",
"        a ].3 5 k a # c & * ; P.L.Q.R.S.T.U.V.W.X.Y.Z.`. +.+++@+, #+q 0.$+u.L.%+!.t.o.&+*+8.r.=+{.R                             ",
"        b 3 r 6 9 b c d p = ; &+!.-+;+>+,+'+)+!+~+{+]+^+/+(+_+:+<+[+q 0.$+u.L.}+M.t.|+&+p.1+2+=+{.R                             ",
"        @ r 4 s 0 @ $ & C = Q 3+4+5+6+7+8+9+0+a+b+c+d+e+f+g+h+i+j+[+q #.$+u.k+}+M.t.|+&+p.l+D 9.R R                             ",
"        # r 5 s a # % & C { : m+4+n+o+p+q+r+s+t+u+v+w+x+y+z+A+B+C+D+#+#.E+> ^.L.M.F+G+o.p.l+8.r.H+R                             ",
"        # 4 5 k b c % & Q I+: J+{.K+L+M+N+O+P+Q+R+S+T+U+V+W+X+Y+Z+`+ @q E+> u.L.M.!.t.o.p.q.8.r.H+R                             ",
"        c 5 6 9 b # % C n.j : .@{.+@@@#@$@%@&@*@=@-@;@>@,@'@)@!@~@{@]@^@0.$+u.L.%+!.t.o.N.*+8.r.H+R                             ",
"        c 4 6 9 b # % ~ n.j 7 /@R (@_@:@<@[@}@|@1@2@3@4@5@6@7@8@9@0@a@b@c@$+u.L.%+!.t.|+&+*+1+2+d@R                             ",
"        c 5 6 9 b # d ( n.e@I+f@d@g@h@i@j@k@l@m@n@o@p@q@r@s@t@u@v@w@x@y@z@A@u.k+}+M.t.|+&+p.1+2+B@R                             ",
"        # 5 6 9 a # = ( 8 n.j C@3+D@E@F@G@H@I@J@K@L@M@N@O@P@Q@R@S@T@U@V@W@X@Y@^.}+M.F+|+o.p.l+D 3+R                             ",
"        # 4 5 k a # ) _ ( 8 e@Z@+.u `@ #.#+#@###$#%#&#*#=#-#;#>#,#'#)#!#~#{#]#^#L.M.!.t.o.p.q.8.3+R                             ",
"        @ 4 6 k a @ ! / _ 6.n./#(#u _#:#<#[#}#|#1#2#3#4#5#6#7#8#9#0#a#b#c#d#e#f#g#M.!.t.o.N.*+8.3+d@                            ",
"        @ r 4 k 0 @ { ^ / 6.8 4+h#i#j#k#l#m#n#o#p#q#r#s#t#u#v#w#x#y#z#A#B#C#D#E#F#G#!.t.|+&+*+8.+.d@                            ",
"        b 3 4 s 9 c ~ ] / ( 8 H#I#: u J#K#L#M#N#O#P#Q#R#S#T#U#V#W#X#Y#Z#`# $.$+$@$#$M.t.|+&+p.1++.d@                            ",
"        a ].r 6 k d ! { ^ ( 6.$$~.7 i#%$&$*$=$-$;$>$,$'$)$!$~${$]$^$/$($_$:$<$[$^.}+M.F+|+o.p.l+}$d@                            ",
"        0 2 3 5 s p + ~ ^ / ( R s.I+: |$1$2$3$4$5$6$7$8$9$0$a$b$c$d$e$f$g$h$E+> ^.L.M.!.t.o.p.q.(#d@                            ",
"        9 F 2 r 6 * ) ~ ] ^ _ d@O.j I+i$j$k$l$m$n$o$p$q$r$s$t$u$v$w$x$y$#+q E+$+u.L.M.!.t.o.N.q.(#d@                            ",
"        s 1 F 3 5 - ) ! { ] / 3+9.e@7 : z$A$B$C$D$E$F$G$H$I$J$K$L$M$N$, #+q 0.$+u.L.%+!.t.|+&+*+h#B@                            ",
"        6 @.1 2 5 P ' + ~ ] / 3+2+e@j : O$P$Q$R$S$T$U$V$W$X$Y$Z$$.`$K., [+q 0.$+> k+}+M.t.|+&+p. %B@        . .     .     . .   ",
"        4 < f 2 6 ; Q ) ! { ^ }$D 8 j 7 .%+%@%#%$%%%&%*%=%-%J.;%>%`$K., [+q #.$+u.k+}+M.F+|+&+p. %B@      . .     .     . .     ",
"        3 | < @.@ - P ' + ~ { h#8.8 e@I+i#,%'%)%!%~%{%]%^%S J.;%>%$.K., /.#+#.E+> ^.L.M.!.G+o.p.I#B@    . .     .     . .       ",
"        ].h E f & = ; Q ) ~ {  %l+6.n.e@7 /%(%_%:%<%t [%^%S J.;%G $.`$N$/.#+q E+> u.L.M.!.t.o.p.I#B@  . .     .     . .         ",
"        F } h 6 p * - P ) + ~ s.2+i }%7.[%S |%1%, , /.[+#+#+q #.0.$+u.^.L.}+%+!.t.|+o.N.q.1+2+9.H+2%. .     .     .             ",
"        @.[ ].% & C = P Q + ~ s.3%4%5%6%7%8%9%0%a%b%c%c%d%d%d%d%d%d%c%c%b%b%e%f%g%h%i%j%k%l%m%n%o%p%. . . . . . . .             ",
"        P - P ' ! { / 6.n.I+: }%..[%S ;%$.K./.#+0.> u.u.^.k+L.}+%+M.!.F+G+|+o.N.*+l+8.2+9.s.I#(#d@q%. .     . .   . .           ",
"          #+F+|+o.o.p.*+q.l+8.8.D r.9.=+O.I#I#h#(#}$+.3+3+3+3+3+d@d@d@d@R R {.{.$$H#H#H#4+/#/#Z@r%s%  . .     . .   . .         ",
"            . . . . . . . . . . . . . . . . . . . . . . . . . . . . . . . . . . . . . . . . . . .   .     .     . .   . .       ",
"                                                                                                            .     . .     .     ",
"                                                                                                              .     . .     .   ",
"                                                                                                                                ",
"                                                                                                                                ",
"                                                                                                                                ",
"                                                                                                                                ",
"                                                                                                                                ",
"                                                                                                                                ",
"                                                                                                                                "};
